<svg id="Слой_1" data-name="Слой 1" xmlns="http://www.w3.org/2000/svg" viewBox="0 0 60 60"><defs><style>.cls-1{fill:none;stroke:#355c7d;stroke-miterlimit:10;stroke-width:2px;stroke-dasharray:6;}.cls-2{fill:#355c7d;}</style></defs><title>favico</title><path class="cls-1" d="M53,59H7a6,6,0,0,1-6-6V7A6,6,0,0,1,7,1H53a6,6,0,0,1,6,6V53A6,6,0,0,1,53,59Z"/><path class="cls-2" d="M49.63,35.5a100.79,100.79,0,0,1-.77,13.82q-.46,3.14-2.44,3.14-2.2,0-2.2-2.42,0-.11.26-2.44.31-2.75.5-5.56.26-4.17.26-8.75a118.49,118.49,0,0,0-1.32-16.88q-5.32,5.25-9.36,16.41L33,37.48a2.44,2.44,0,0,1-2.2,1.71,2.12,2.12,0,0,1-2-1.34q-.24-.48-1.27-3.93A43.54,43.54,0,0,0,17.31,16.78q-2.44,7.91-2.44,21.6,0,2,.16,4.88t.17,3.85q0,3.34-2.22,3.34-1.74,0-2.22-2.11a44.49,44.49,0,0,1-.33-7q0-14.85,2.15-24.52a17.83,17.83,0,0,1,1.52-4.61,2.48,2.48,0,0,1,2.18-1.41q1.43,0,3.28,2a69.76,69.76,0,0,1,6,7.1,47.4,47.4,0,0,1,5.54,10.54,70.29,70.29,0,0,1,8.6-15.53q3.78-5.23,6-5.23a1.57,1.57,0,0,1,1.43.83A10.41,10.41,0,0,1,48,13.09Q49.63,20.15,49.63,35.5Z"/></svg>