<svg xmlns="http://www.w3.org/2000/svg" viewBox="0 0 118.36 146.64"><defs><style>.cls-1{fill:none;stroke:#6d55ae;}.cls-1,.cls-3{stroke-miterlimit:10;stroke-width:6px;}.cls-2,.cls-3{fill:#6d55ae;}.cls-3{stroke:#fff;}.cls-4{font-size:26.34px;fill:#fff;font-family:MullerBold, Muller;}</style></defs><title>unknownРесурс 6</title><g id="Слой_2" data-name="Слой 2"><g id="Objects"><path class="cls-1" d="M84.53,3H31.37A8.36,8.36,0,0,0,23,11.34V112.16a8.37,8.37,0,0,0,8.34,8.35H107a8.38,8.38,0,0,0,8.35-8.35v-78Z"/><path class="cls-2" d="M84.61,3V25.78A8.37,8.37,0,0,0,93,34.13h22.41Z"/><rect class="cls-3" x="3" y="31.95" width="75.65" height="41.78" rx="15.56"/><text class="cls-4" transform="translate(34.25 61.75)">?</text><polygon class="cls-3" points="81.77 108.89 81.77 82.89 55.77 82.89 55.77 108.89 42.27 108.89 68.82 141.85 95.36 108.89 81.77 108.89"/></g></g></svg>