<svg xmlns="http://www.w3.org/2000/svg" xmlns:xlink="http://www.w3.org/1999/xlink" viewBox="0 0 64 64"><defs><style>.cls-1{fill:url(#linear-gradient);}.cls-2{fill:#fff;}</style><linearGradient id="linear-gradient" x1="32" y1="-9.5" x2="32" y2="98.49" gradientUnits="userSpaceOnUse"><stop offset="0" stop-color="#fff"/><stop offset="0.02" stop-color="#f8eff1"/><stop offset="0.11" stop-color="#daa9b7"/><stop offset="0.17" stop-color="#c77d92"/><stop offset="0.2" stop-color="#c06c84"/><stop offset="0.31" stop-color="#bb6981"/><stop offset="0.42" stop-color="#ae6277"/><stop offset="0.54" stop-color="#975568"/><stop offset="0.67" stop-color="#774352"/><stop offset="0.8" stop-color="#4e2c36"/><stop offset="0.93" stop-color="#1d1014"/><stop offset="1"/></linearGradient></defs><title>android_Asset 2</title><g id="Layer_2" data-name="Layer 2"><g id="Layer_1-2" data-name="Layer 1"><circle class="cls-1" cx="32" cy="32" r="32"/><path class="cls-2" d="M15.31,24.81a1,1,0,0,0-.54.13,1,1,0,0,0-.31.33,1.16,1.16,0,0,0-.14.45,4,4,0,0,0,0,.48v2.89a2.5,2.5,0,0,1-.22,1.13,2,2,0,0,1-.51.67,1.79,1.79,0,0,1-.62.33,2.9,2.9,0,0,1-.53.11v.06a2.6,2.6,0,0,1,.53.12,1.93,1.93,0,0,1,.62.34,2.14,2.14,0,0,1,.51.63,2,2,0,0,1,.22,1v3a3.88,3.88,0,0,0,0,.46,1.17,1.17,0,0,0,.14.45,1,1,0,0,0,.31.33,1,1,0,0,0,.54.13h1V40H13.92a2,2,0,0,1-.73-.16,2.54,2.54,0,0,1-.76-.47,2.69,2.69,0,0,1-.6-.8,2.45,2.45,0,0,1-.25-1.13V33.76a1.37,1.37,0,0,0-.19-.74,1.61,1.61,0,0,0-.46-.48,2,2,0,0,0-.57-.27,2,2,0,0,0-.51-.09V30.53a1.93,1.93,0,0,0,.51-.09,1.69,1.69,0,0,0,1-.82,1.6,1.6,0,0,0,.19-.81V25.25a2.45,2.45,0,0,1,.25-1.13,2.69,2.69,0,0,1,.6-.8,2.54,2.54,0,0,1,.76-.47,2,2,0,0,1,.73-.16h2.41v2.13Z"/><path class="cls-2" d="M22.05,28.52a1.89,1.89,0,0,0-1.08.29,2.34,2.34,0,0,0-.71.76,3.29,3.29,0,0,0-.39,1,5.56,5.56,0,0,0-.11,1.11,5.32,5.32,0,0,0,.11,1.08,3.35,3.35,0,0,0,.37,1,2.14,2.14,0,0,0,.69.73A1.91,1.91,0,0,0,22,34.8a2,2,0,0,0,1.49-.54,2.56,2.56,0,0,0,.66-1.45h2.6a4.45,4.45,0,0,1-1.52,3,4.91,4.91,0,0,1-3.21,1,5.37,5.37,0,0,1-2-.37,4.48,4.48,0,0,1-1.57-1,4.7,4.7,0,0,1-1-1.59,5.51,5.51,0,0,1-.36-2,6.54,6.54,0,0,1,.33-2.12,4.77,4.77,0,0,1,1-1.69,4.49,4.49,0,0,1,1.58-1.11,5.36,5.36,0,0,1,2.13-.4,6.15,6.15,0,0,1,1.68.23,4.5,4.5,0,0,1,1.44.69,3.59,3.59,0,0,1,1.49,2.8H24A1.81,1.81,0,0,0,22.05,28.52Z"/><path class="cls-2" d="M30.54,34.13a1.57,1.57,0,0,0,.47.51,2,2,0,0,0,.66.29,3.08,3.08,0,0,0,.77.09A2.91,2.91,0,0,0,33,35a2.06,2.06,0,0,0,.57-.21,1.31,1.31,0,0,0,.43-.38,1,1,0,0,0,.17-.6q0-.61-.81-.91a16.28,16.28,0,0,0-2.25-.61q-.59-.13-1.15-.31a3.91,3.91,0,0,1-1-.47,2.3,2.3,0,0,1-.7-.74A2.1,2.1,0,0,1,28,29.64a3,3,0,0,1,.37-1.56,2.74,2.74,0,0,1,1-1,4.3,4.3,0,0,1,1.37-.49,8.36,8.36,0,0,1,1.56-.14,7.84,7.84,0,0,1,1.55.15,4.09,4.09,0,0,1,1.34.51,3.08,3.08,0,0,1,1,1,3.22,3.22,0,0,1,.47,1.51H34.06a1.18,1.18,0,0,0-.59-1.05,2.69,2.69,0,0,0-1.25-.28l-.49,0a1.66,1.66,0,0,0-.48.12,1,1,0,0,0-.37.28.73.73,0,0,0-.15.48.74.74,0,0,0,.27.59,2,2,0,0,0,.69.37,8.52,8.52,0,0,0,1,.26l1.12.25a11.41,11.41,0,0,1,1.15.32,3.76,3.76,0,0,1,1,.5,2.44,2.44,0,0,1,.7.78,2.28,2.28,0,0,1,.27,1.15,3,3,0,0,1-1.41,2.68,4.15,4.15,0,0,1-1.43.56,8.39,8.39,0,0,1-1.64.16,8.18,8.18,0,0,1-1.67-.17,4.43,4.43,0,0,1-1.45-.57,3.26,3.26,0,0,1-1-1.05,3.3,3.3,0,0,1-.45-1.64h2.57A1.48,1.48,0,0,0,30.54,34.13Z"/><path class="cls-2" d="M40.74,34.13a1.57,1.57,0,0,0,.47.51,2,2,0,0,0,.66.29,3.08,3.08,0,0,0,.77.09,2.91,2.91,0,0,0,.6-.07,2.06,2.06,0,0,0,.57-.21,1.31,1.31,0,0,0,.43-.38,1,1,0,0,0,.17-.6q0-.61-.81-.91a16.28,16.28,0,0,0-2.25-.61q-.59-.13-1.15-.31a3.91,3.91,0,0,1-1-.47,2.3,2.3,0,0,1-.7-.74,2.1,2.1,0,0,1-.27-1.09,3,3,0,0,1,.37-1.56,2.74,2.74,0,0,1,1-1,4.3,4.3,0,0,1,1.37-.49,8.36,8.36,0,0,1,1.56-.14,7.84,7.84,0,0,1,1.55.15,4.09,4.09,0,0,1,1.34.51,3.08,3.08,0,0,1,1,1,3.22,3.22,0,0,1,.47,1.51H44.26a1.18,1.18,0,0,0-.59-1.05,2.69,2.69,0,0,0-1.25-.28l-.49,0a1.66,1.66,0,0,0-.48.12,1,1,0,0,0-.37.28.73.73,0,0,0-.15.48.74.74,0,0,0,.27.59,2,2,0,0,0,.69.37,8.52,8.52,0,0,0,1,.26l1.12.25a11.41,11.41,0,0,1,1.15.32,3.76,3.76,0,0,1,1,.5,2.44,2.44,0,0,1,.7.78,2.28,2.28,0,0,1,.27,1.15,3,3,0,0,1-1.41,2.68,4.15,4.15,0,0,1-1.43.56,8.39,8.39,0,0,1-1.64.16,8.18,8.18,0,0,1-1.67-.17,4.43,4.43,0,0,1-1.45-.57,3.26,3.26,0,0,1-1-1.05A3.3,3.3,0,0,1,38,33.38h2.57A1.48,1.48,0,0,0,40.74,34.13Z"/><path class="cls-2" d="M48.67,37.88a.9.9,0,0,0,.85-.46,1.15,1.15,0,0,0,.14-.45,3.87,3.87,0,0,0,0-.46v-3a2,2,0,0,1,.22-1,2.11,2.11,0,0,1,.51-.63,1.91,1.91,0,0,1,.62-.34,2.58,2.58,0,0,1,.53-.12v-.06a2.88,2.88,0,0,1-.53-.11,1.77,1.77,0,0,1-.62-.33,2,2,0,0,1-.51-.67,2.5,2.5,0,0,1-.22-1.13V26.2a4,4,0,0,0,0-.48,1.15,1.15,0,0,0-.14-.45.9.9,0,0,0-.85-.47h-1V22.68h2.41a2,2,0,0,1,.73.16,2.54,2.54,0,0,1,.76.47,2.69,2.69,0,0,1,.6.8,2.45,2.45,0,0,1,.25,1.13v3.57a1.6,1.6,0,0,0,.19.81,1.69,1.69,0,0,0,1,.82,2,2,0,0,0,.53.09v1.65a2,2,0,0,0-.53.09,1.94,1.94,0,0,0-.57.27,1.6,1.6,0,0,0-.46.48,1.37,1.37,0,0,0-.19.74v3.69a2.45,2.45,0,0,1-.25,1.13,2.69,2.69,0,0,1-.6.8,2.54,2.54,0,0,1-.76.47,2,2,0,0,1-.73.16H47.65V37.88Z"/></g></g></svg>