<svg xmlns="http://www.w3.org/2000/svg" viewBox="0 0 118.36 146.14"><defs><style>.cls-1{fill:none;stroke:#6ab71a;}.cls-1,.cls-3{stroke-miterlimit:10;stroke-width:6px;}.cls-2,.cls-3{fill:#6ab71a;}.cls-3{stroke:#fff;}.cls-4{font-size:26.34px;fill:#fff;font-family:MullerBold, Muller;}.cls-5{letter-spacing:-0.02em;}</style></defs><title>pdfРесурс 1</title><g id="Слой_2" data-name="Слой 2"><g id="Objects"><path class="cls-1" d="M84.53,3H31.37A8.36,8.36,0,0,0,23,11.34V112.16a8.37,8.37,0,0,0,8.34,8.35H107a8.38,8.38,0,0,0,8.35-8.35v-78Z"/><path class="cls-2" d="M84.61,3V25.78A8.37,8.37,0,0,0,93,34.13h22.41Z"/><path class="cls-3" d="M18.56,32H63.09A15.56,15.56,0,0,1,78.65,47.51V58.17A15.55,15.55,0,0,1,63.09,73.73H18.56A15.56,15.56,0,0,1,3,58.17V47.51A15.56,15.56,0,0,1,18.56,32Z"/><text class="cls-4" transform="translate(16.17 61.75)">PD<tspan class="cls-5" x="37.09" y="0">F</tspan></text><polygon class="cls-3" points="81.98 108.4 81.98 83.4 55.98 83.4 55.98 108.4 42.27 108.4 68.82 141.36 95.36 108.4 81.98 108.4"/></g></g></svg>