<?xml version="1.0" encoding="UTF-8" standalone="no"?>
<svg width="168px" height="124px" viewBox="0 0 168 124" version="1.1" xmlns="http://www.w3.org/2000/svg" xmlns:xlink="http://www.w3.org/1999/xlink">
    <!-- Generator: Sketch 41 (35326) - http://www.bohemiancoding.com/sketch -->
    <title>Group 5</title>
    <desc>Created with Sketch.</desc>
    <defs></defs>
    <g id="SITE" stroke="none" stroke-width="1" fill="none" fill-rule="evenodd">
        <g id="MAIN" transform="translate(-856.000000, -900.000000)">
            <g id="Group-5" transform="translate(905.500000, 984.000000) scale(-1, 1) translate(-905.500000, -984.000000) translate(761.000000, 900.000000)">
                <path d="M0,14.680159 C0,14.680159 9.20544534,9.31372503 21.3544427,5.0700891 C31.6412058,1.47693024 44.0382889,-1.31126133 54.7444934,0.644715946 C112.874094,11.2647427 110.92598,61.63145 156.594714,105.272564 C174.842878,122.710539 289,155.665823 289,155.665823 L263.537445,155.665823 C263.537445,155.665823 175.949851,141.286314 153.624082,121.434589 C97.1820852,71.2472476 102.274596,25.3130704 53.8957416,8.7257286 C33.1452459,1.61114173 0,19.564557 0,19.564557 L0,14.680159 Z" id="Path-2" fill="#F8B195"></path>
                <path d="M0,18.7139241 C0,18.7139241 9.20544534,14.4175225 21.3544427,10.1738866 C31.6412058,6.5807277 44.0382889,3.79253614 54.7444934,5.74851341 C112.874094,16.3685402 106.942731,70.1772152 156.594714,110.376362 C176.868325,126.790246 248.259912,147.159494 248.259912,147.159494 L221.524229,154.389873 C221.524229,154.389873 175.949851,146.390112 153.624082,126.538387 C97.1820852,76.3510451 102.274596,30.4168678 53.8957416,13.8295261 C33.1452459,6.7149392 0,22.1164557 0,22.1164557 L0,18.7139241 Z" id="Path-2-Copy" fill="#F67280"></path>
                <path d="M0,20.6345894 C0,20.6345894 9.49417444,16.1524967 21.6431718,11.9088608 C31.9299349,8.3157019 44.3191069,7.77531714 55.1688693,9.35696203 C125.190896,19.564557 100.900744,76.5120515 156.170338,112.708861 C199.032305,140.779747 236.801762,150.136709 236.801762,150.136709 L221.524229,164.172152 C221.524229,164.172152 169.325991,140.779747 154.89721,127.594937 C80.0650663,59.2144136 112.459618,25.0936709 53.8957416,14.680159 C31.2859449,10.6598072 0,24.243038 0,24.243038 L0,20.6345894 Z" id="Path-2-Copy-2" fill="#C06C84"></path>
                <path d="M0,22.8546457 C0,22.8546457 9.06979853,19.0172689 21.2187959,14.773633 C31.505559,11.1804741 44.0434712,10.0495522 54.7444934,12.0158173 C113.732746,22.8546457 95.9089574,60.7078102 156.594714,116.643665 C175.285843,133.871832 233.831131,153.113924 233.831131,153.113924 L221.524229,164.059709 C221.524229,164.059709 175.525475,155.415231 153.199706,135.563506 C96.7577093,85.3761646 102.274596,36.6841717 53.8957416,20.09683 C33.1452459,12.9822431 0,26.2571773 0,26.2571773 L0,22.8546457 Z" id="Path-2-Copy-3" fill="#6C5B7B"></path>
                <path d="M0,23.9246781 C0,23.9246781 9.06979853,22.5322435 21.2187959,18.2886076 C31.505559,14.6954487 44.0434712,13.8774003 54.7444934,15.8436654 C113.732746,26.6824938 95.9089574,64.5356583 156.594714,120.471514 C175.285843,137.69968 222.797357,155.665823 222.797357,155.665823 L221.524229,167.887557 C221.524229,167.887557 175.525475,159.243079 153.199706,139.391355 C96.7577093,89.2040127 102.698972,37.8531646 54.3201175,21.2658228 C33.5696218,14.1512359 0,27.2202532 0,27.2202532 L0,23.9246781 Z" id="Path-2-Copy-4" fill="#355C7D"></path>
            </g>
        </g>
    </g>
</svg>