<svg xmlns="http://www.w3.org/2000/svg" viewBox="0 0 118.36 146.13"><defs><style>.cls-1{fill:none;stroke:#705165;}.cls-1,.cls-3{stroke-miterlimit:10;stroke-width:6px;}.cls-2,.cls-3{fill:#705165;}.cls-3{stroke:#fff;}.cls-4{font-size:21.86px;fill:#fff;font-family:MullerBold, Muller;}</style></defs><title>epubРесурс 3</title><g id="Слой_2" data-name="Слой 2"><g id="Objects"><path class="cls-1" d="M84.53,3H31.37A8.36,8.36,0,0,0,23,11.34V112.16a8.37,8.37,0,0,0,8.34,8.35H107a8.38,8.38,0,0,0,8.35-8.35v-78Z"/><path class="cls-2" d="M84.61,3V25.78A8.36,8.36,0,0,0,93,34.12h22.41Z"/><rect class="cls-3" x="3" y="31.95" width="75.65" height="41.78" rx="15.56"/><text class="cls-4" transform="translate(11.42 61.75)">EPUB</text><polygon class="cls-3" points="81.37 108.38 81.37 83.38 55.37 83.38 55.37 108.38 42.27 108.38 68.82 141.34 95.36 108.38 81.37 108.38"/></g></g></svg>