<svg xmlns="http://www.w3.org/2000/svg" xmlns:xlink="http://www.w3.org/1999/xlink" viewBox="0 0 64 64"><defs><style>.cls-1{fill:url(#linear-gradient);}.cls-2{fill:#fff;}</style><linearGradient id="linear-gradient" x1="32" y1="-9.5" x2="32" y2="98.49" gradientUnits="userSpaceOnUse"><stop offset="0" stop-color="#fff"/><stop offset="0.01" stop-color="#fef5f6"/><stop offset="0.1" stop-color="#faafb7"/><stop offset="0.17" stop-color="#f7838f"/><stop offset="0.2" stop-color="#f67280"/><stop offset="0.29" stop-color="#f1707e"/><stop offset="0.39" stop-color="#e46976"/><stop offset="0.5" stop-color="#cd5f6b"/><stop offset="0.61" stop-color="#ad505a"/><stop offset="0.72" stop-color="#843d45"/><stop offset="0.84" stop-color="#52262b"/><stop offset="0.96" stop-color="#180b0d"/><stop offset="1"/></linearGradient></defs><title>android_Asset 1</title><g id="Layer_2" data-name="Layer 2"><g id="Layer_1-2" data-name="Layer 1"><circle class="cls-1" cx="32" cy="32" r="32"/><path class="cls-2" d="M4.12,31.76l7,2.77V36.7L1.44,32.89V30.64l9.65-3.84V29Z"/><path class="cls-2" d="M15.69,23v5.11h.06a3.13,3.13,0,0,1,1.31-1.24,3.54,3.54,0,0,1,1.56-.39,4.58,4.58,0,0,1,1.78.29,2.64,2.64,0,0,1,1.09.82A3.17,3.17,0,0,1,22,28.87a7.94,7.94,0,0,1,.16,1.66v6h-2.7V31a3.45,3.45,0,0,0-.38-1.81,1.47,1.47,0,0,0-1.35-.6,1.87,1.87,0,0,0-1.6.66,3.65,3.65,0,0,0-.49,2.16v5.15H13V23Z"/><path class="cls-2" d="M29.65,26.75v1.81h-2v4.86a1.32,1.32,0,0,0,.23.91,1.32,1.32,0,0,0,.91.23l.44,0,.4-.06v2.09a6.41,6.41,0,0,1-.76.08l-.82,0a7.85,7.85,0,0,1-1.19-.09,2.79,2.79,0,0,1-1-.33,1.75,1.75,0,0,1-.67-.7,2.51,2.51,0,0,1-.25-1.2V28.55H23.35V26.75H25V23.8h2.7v2.94Z"/><path class="cls-2" d="M33.57,26.75v1.33h0a3.84,3.84,0,0,1,1.28-1.18,3.47,3.47,0,0,1,1.72-.42,4,4,0,0,1,1.7.36,2.39,2.39,0,0,1,1.17,1.27A4.19,4.19,0,0,1,40.66,27a3.16,3.16,0,0,1,1.78-.49,5.25,5.25,0,0,1,1.44.19,2.91,2.91,0,0,1,1.14.61,2.8,2.8,0,0,1,.74,1.09A4.44,4.44,0,0,1,46,30v6.57h-2.7V31q0-.49,0-.93a2,2,0,0,0-.21-.76,1.27,1.27,0,0,0-.5-.51,1.82,1.82,0,0,0-.9-.19,1.73,1.73,0,0,0-.92.22,1.58,1.58,0,0,0-.55.57,2.28,2.28,0,0,0-.27.8,6.11,6.11,0,0,0-.07.9v5.47h-2.7V31.06q0-.44,0-.86a2.43,2.43,0,0,0-.16-.79,1.22,1.22,0,0,0-.48-.58,1.79,1.79,0,0,0-1-.22,2,2,0,0,0-.5.09,1.67,1.67,0,0,0-.61.32,1.89,1.89,0,0,0-.5.68,2.78,2.78,0,0,0-.21,1.17v5.7H31V26.75Z"/><path class="cls-2" d="M50.93,23V36.57h-2.7V23Z"/><path class="cls-2" d="M59.88,31.76l-7-2.77V26.81l9.65,3.84v2.24L52.91,36.7V34.54Z"/></g></g></svg>